<svg width="132" height="57" viewBox="0 0 132 57" fill="none" xmlns="http://www.w3.org/2000/svg">
<path d="M15.6876 44.2439C12.2188 44.2145 8.76962 43.7361 5.4316 42.8213L1.95511 44.1146C1.8639 44.1501 1.7651 44.1634 1.66737 44.1532C1.56964 44.1431 1.47598 44.1098 1.3946 44.0564C1.31373 44.0053 1.24629 43.9366 1.19763 43.8558C1.14898 43.7749 1.12046 43.6842 1.11435 43.5908L0.226873 27.9677C0.219456 27.886 0.230543 27.8038 0.259358 27.7267C0.288173 27.6497 0.33402 27.5796 0.393691 27.5215C0.450558 27.4617 0.519722 27.4141 0.596725 27.3818C0.673728 27.3495 0.756861 27.3332 0.840764 27.334H0.980891C1.13724 27.3351 1.28755 27.3927 1.40235 27.4955C1.51714 27.5984 1.58815 27.7391 1.60146 27.8901C1.80164 30.7742 2.59569 34.8933 5.23142 38.1654C7.75371 41.2823 11.3637 42.8601 15.9678 42.8601C21.306 42.8601 24.7625 40.7779 24.7625 37.5511C24.7625 33.71 19.6912 31.7312 14.3197 29.6037C7.60691 26.9589 0 23.9391 0 16.5414C0 8.71687 8.41431 4.49423 16.3282 4.49423C19.8049 4.58267 23.2586 5.06887 26.6175 5.94273L29.5602 4.64943C29.6512 4.60847 29.7512 4.58998 29.8513 4.59562C29.9515 4.60126 30.0486 4.63086 30.1341 4.68176C30.2187 4.73527 30.2898 4.80674 30.3418 4.89076C30.3938 4.97477 30.4255 5.06915 30.4343 5.16675L31.155 18.3908C31.1597 18.5546 31.1001 18.7141 30.9882 18.837C30.8672 18.9534 30.7048 19.0205 30.5344 19.0245H30.401C30.2415 19.0263 30.0876 18.968 29.9718 18.8618C29.856 18.7555 29.7873 18.6098 29.7804 18.4555C29.4201 12.3769 25.9502 5.87807 17.2757 5.87807C12.6048 5.87807 9.68213 7.76629 9.68213 10.812C9.68213 14.5755 14.353 16.315 19.798 18.3326C26.4707 20.8157 34.111 23.6416 34.111 31.3562C34.111 35.2361 32.1759 38.5081 28.5193 40.8814C25.1829 43.0476 20.6187 44.2375 15.6876 44.2375V44.2439ZM45.081 12.8554C44.1755 12.9112 43.2678 12.7864 42.4139 12.4889C41.5601 12.1915 40.7783 11.7275 40.1167 11.1258C39.4551 10.5241 38.9278 9.7973 38.5673 8.99037C38.2068 8.18345 38.0208 7.31348 38.0208 6.43419C38.0208 5.55489 38.2068 4.68493 38.5673 3.878C38.9278 3.07108 39.4551 2.34432 40.1167 1.74258C40.7783 1.14085 41.5601 0.676921 42.4139 0.379432C43.2678 0.0819435 44.1755 -0.0427895 45.081 0.0129335C45.9512 -1.13056e-05 46.8153 0.155684 47.6225 0.470874C48.4298 0.786065 49.1639 1.2544 49.7818 1.84836C50.3997 2.44233 50.8888 3.14996 51.2206 3.92969C51.5523 4.70942 51.72 5.54553 51.7137 6.38892C51.7137 8.09725 51.0162 9.73618 49.7734 10.9478C48.5307 12.1594 46.8437 12.8452 45.081 12.8554ZM55.1101 43.843H35.0919C34.9285 43.8413 34.7723 43.7772 34.6574 43.6646C34.5425 43.552 34.478 43.4 34.478 43.2416V43.1058C34.478 42.9475 34.5425 42.7955 34.6574 42.6829C34.7723 42.5703 34.9285 42.5061 35.0919 42.5044C38.8486 42.5044 39.3224 41.7802 39.3224 36.0379V23.1049C39.3224 20.9903 39.0488 19.8716 38.4016 19.406C37.7543 18.9404 36.4665 18.934 34.5047 19.4448C34.4231 19.4679 34.3374 19.4741 34.2531 19.463C34.1689 19.452 34.088 19.4239 34.0157 19.3806C33.9433 19.3374 33.8812 19.2798 33.8332 19.2118C33.7853 19.1438 33.7526 19.0667 33.7373 18.9857V18.8499C33.6978 18.6983 33.7202 18.5377 33.7997 18.4016C33.8792 18.2655 34.0099 18.1644 34.1644 18.1192L50.0989 13.9612C50.1914 13.9402 50.2874 13.9385 50.3806 13.9564C50.4739 13.9742 50.5621 14.0111 50.6394 14.0647C50.7146 14.1212 50.7754 14.1938 50.817 14.2768C50.8587 14.3598 50.8801 14.4509 50.8796 14.5432L50.8796 36.0315C50.8796 41.8061 51.3533 42.498 55.1101 42.498C55.2747 42.498 55.4325 42.5613 55.5489 42.6741C55.6653 42.7869 55.7306 42.9399 55.7306 43.0994V43.2352C55.7306 43.3947 55.6653 43.5476 55.5489 43.6604C55.4325 43.7732 55.2747 43.8366 55.1101 43.8366V43.843ZM71.6518 20.6993V37.1114C71.6518 41.6703 71.9254 42.8278 74.4877 42.8278C77.05 42.8278 79.4055 41.1529 79.4055 29.0153C79.4055 25.8273 79.4055 17.3755 75.5687 17.3755C74.2341 17.3755 72.8395 19.0245 71.6785 20.6864L71.6518 20.6993ZM77.0033 56.013L55.8908 56.013C55.7274 56.013 55.5705 55.9506 55.4543 55.8392C55.3381 55.7278 55.272 55.5765 55.2702 55.4181V55.2823C55.2702 55.1228 55.3356 54.9698 55.452 54.8571C55.5684 54.7443 55.7262 54.6809 55.8908 54.6809C59.6409 54.6809 60.1146 53.9502 60.1146 48.1821V23.0725C60.1146 20.9645 59.8477 19.8393 59.2071 19.3802C58.5666 18.921 57.3054 18.9016 55.2969 19.4125C55.2153 19.4356 55.1296 19.4418 55.0454 19.4307C54.9611 19.4197 54.8802 19.3916 54.8079 19.3483C54.7356 19.305 54.6734 19.2475 54.6255 19.1795C54.5775 19.1114 54.5448 19.0344 54.5296 18.9534V18.8176C54.4975 18.6714 54.5229 18.5188 54.6006 18.3897C54.6783 18.2606 54.8028 18.1642 54.9499 18.1192L70.9979 13.9612C71.0906 13.9384 71.1876 13.9364 71.2812 13.9554C71.3749 13.9745 71.4629 14.0141 71.5383 14.0712C71.6146 14.1293 71.6755 14.2042 71.7161 14.2897C71.7567 14.3751 71.7758 14.4686 71.7719 14.5626L71.6651 18.3391C74.0873 15.3127 76.683 13.9418 79.8993 13.9418C81.4621 13.9573 83.0029 14.3012 84.4153 14.9499C85.8277 15.5985 87.0781 16.5364 88.08 17.6989C90.3954 20.4253 91.6201 23.8687 91.5298 27.3987C91.575 31.7265 89.955 35.9154 86.9857 39.1483C85.4518 40.7793 83.579 42.0771 81.4905 42.9565C79.4019 43.8358 77.145 44.2768 74.868 44.2504C73.7553 44.2406 72.6481 44.0972 71.5717 43.8236L71.6451 48.1756C71.7519 53.8209 71.7652 54.6874 76.9833 54.6874C77.1479 54.6874 77.3057 54.7507 77.4221 54.8635C77.5385 54.9763 77.6039 55.1293 77.6039 55.2888V55.4246C77.6021 55.5829 77.5359 55.7342 77.4198 55.8456C77.3036 55.957 77.1467 56.0195 76.9833 56.0195L77.0033 56.013ZM108.599 20.7058V37.1114C108.599 41.6703 108.872 42.8278 111.435 42.8278C113.997 42.8278 116.326 41.1529 116.326 29.0153C116.326 25.8273 116.326 17.3755 112.489 17.3755C111.121 17.3755 109.76 19.0245 108.599 20.6864V20.7058ZM113.937 56.0324L92.831 56.0324C92.6676 56.0324 92.5107 55.97 92.3946 55.8586C92.2784 55.7472 92.2122 55.5959 92.2105 55.4375V55.3017C92.2105 55.1422 92.2758 54.9892 92.3922 54.8764C92.5086 54.7637 92.6664 54.7003 92.831 54.7003C96.5811 54.7003 97.0549 53.9696 97.0549 48.2015L97.0549 23.0725C97.0549 20.9645 96.7879 19.8393 96.1474 19.3802C95.5068 18.921 94.2456 18.9016 92.2371 19.4125C92.1555 19.4356 92.0698 19.4418 91.9856 19.4307C91.9014 19.4197 91.8205 19.3916 91.7481 19.3483C91.6758 19.305 91.6136 19.2475 91.5657 19.1795C91.5177 19.1114 91.4851 19.0344 91.4698 18.9534V18.8176C91.439 18.6679 91.468 18.5125 91.551 18.3828C91.634 18.2532 91.7648 18.1589 91.9169 18.1192L107.931 13.9612C108.024 13.9384 108.121 13.9364 108.215 13.9554C108.308 13.9745 108.396 14.0141 108.472 14.0712C108.548 14.1293 108.609 14.2042 108.65 14.2897C108.69 14.3751 108.709 14.4686 108.705 14.5626L108.599 18.3391C111.021 15.3127 113.617 13.9418 116.833 13.9418C118.399 13.9545 119.944 14.2971 121.36 14.9458C122.776 15.5945 124.029 16.5339 125.034 17.6989C127.349 20.4253 128.574 23.8687 128.483 27.3987C128.529 31.7265 126.909 35.9154 123.939 39.1483C122.405 40.7793 120.533 42.0771 118.444 42.9565C116.356 43.8358 114.099 44.2768 111.822 44.2504C110.709 44.2406 109.602 44.0972 108.525 43.8236L108.599 48.1756C108.705 53.8209 108.719 54.6874 113.937 54.6874C114.019 54.6865 114.1 54.7015 114.175 54.7314C114.251 54.7613 114.32 54.8056 114.378 54.8616C114.435 54.9176 114.481 54.9842 114.512 55.0576C114.543 55.131 114.558 55.2095 114.557 55.2888V55.4246C114.557 55.5032 114.541 55.5811 114.51 55.6537C114.479 55.7263 114.433 55.7922 114.375 55.8475C114.318 55.9029 114.249 55.9466 114.174 55.9761C114.099 56.0056 114.018 56.0203 113.937 56.0195V56.0324ZM129.991 14.9312H130.118C130.312 14.9312 130.372 14.8471 130.372 14.6208V14.5367C130.372 14.3621 130.325 14.2587 130.125 14.2587H130.018L129.991 14.9312ZM129.991 15.1705V16.1275H129.698V14.0194H130.118C130.445 14.0194 130.625 14.1488 130.625 14.5173V14.6014C130.625 14.9118 130.505 15.0088 130.405 15.0411C130.539 15.0993 130.605 15.1899 130.605 15.4744V16.121H130.325C130.311 15.9057 130.311 15.6897 130.325 15.4744C130.325 15.2093 130.285 15.1446 130.085 15.1446L129.991 15.1705ZM130.118 13.5926C129.813 13.5926 129.515 13.6802 129.262 13.8444C129.008 14.0085 128.811 14.2418 128.694 14.5148C128.578 14.7877 128.547 15.0881 128.606 15.3778C128.666 15.6676 128.813 15.9337 129.028 16.1426C129.244 16.3516 129.519 16.4938 129.818 16.5515C130.117 16.6091 130.426 16.5795 130.708 16.4665C130.99 16.3534 131.23 16.1619 131.4 15.9163C131.569 15.6706 131.66 15.3818 131.66 15.0864C131.658 14.6907 131.495 14.3118 131.206 14.032C130.918 13.7523 130.527 13.5943 130.118 13.5926ZM130.118 16.8906C129.75 16.8906 129.39 16.7847 129.084 16.5865C128.778 16.3883 128.539 16.1065 128.398 15.7768C128.257 15.4472 128.22 15.0844 128.292 14.7344C128.364 14.3844 128.541 14.063 128.802 13.8107C129.062 13.5583 129.394 13.3865 129.755 13.3169C130.116 13.2473 130.491 13.283 130.831 13.4196C131.171 13.5561 131.462 13.7874 131.666 14.0841C131.871 14.3807 131.98 14.7296 131.98 15.0864C131.983 15.3255 131.938 15.5629 131.846 15.7848C131.754 16.0066 131.617 16.2086 131.444 16.3789C131.271 16.5492 131.065 16.6844 130.837 16.7767C130.609 16.8689 130.365 16.9164 130.118 16.9164" fill="#F59EC4"/>
</svg>
