<svg width="57" height="56" viewBox="0 0 57 56" fill="none" xmlns="http://www.w3.org/2000/svg">
<g clip-path="url(#clip0)">
<path d="M26.4938 20.3709C27.8591 19.0057 27.8591 16.7845 26.4938 15.4193C25.1286 14.0541 22.9075 14.0541 21.5423 15.4193C20.1771 16.7846 20.1771 19.0057 21.5423 20.3709C22.9075 21.7361 25.1286 21.7361 26.4938 20.3709ZM23.1928 17.0698C23.6477 16.615 24.3881 16.6147 24.8433 17.0698C25.2985 17.525 25.2982 18.2655 24.8433 18.7204C24.3881 19.1755 23.648 19.1755 23.1928 18.7204C22.7376 18.2652 22.7376 17.525 23.1928 17.0698Z" fill="#283388"/>
<path d="M44.3193 42.7355C49.1823 37.8726 49.3205 30.0471 44.7342 25.0153L46.6958 11.9114L49.5926 14.4458C50.0778 14.8697 50.8157 14.8204 51.2396 14.3365C51.6435 13.8752 51.6203 13.1757 51.1877 12.7431C51.1687 12.724 51.15 12.7066 51.13 12.6886L47.1065 9.16865L47.7016 5.19386C47.797 4.55622 47.3576 3.9621 46.7203 3.867C46.0827 3.77158 45.4886 4.21096 45.3935 4.84828L44.1669 13.0393L32.9443 13.3311C32.6355 12.9397 32.3015 12.5619 31.9404 12.2008C26.935 7.19544 18.7904 7.19511 13.7847 12.2008C10.3128 15.6727 9.25158 20.6539 10.5962 25.0514C8.58976 25.6342 6.69843 26.7145 5.11947 28.2934C0.114075 33.2988 0.114075 41.4437 5.11947 46.4491C10.1249 51.4545 18.2698 51.4545 23.2752 46.4491C24.4402 45.2841 25.3338 43.9489 25.9563 42.523C26.0247 42.5946 26.0933 42.6652 26.1636 42.7355C31.169 47.7409 39.3136 47.7412 44.3193 42.7355ZM43.8161 15.3836L42.6501 23.1723C40.5647 21.6975 38.1357 20.9183 35.686 20.8342C35.6248 19.0463 35.1928 17.2688 34.3904 15.6282L43.8161 15.3836ZM15.4352 13.8514C19.5306 9.756 26.1946 9.756 30.2899 13.8514C32.2576 15.8191 33.2789 18.38 33.3556 20.9641C30.7219 21.3522 28.1865 22.5569 26.1636 24.5797C24.9983 25.7451 24.1059 27.081 23.4838 28.5071C23.4151 28.4352 23.3458 28.364 23.2752 28.2934C20.4435 25.4617 16.607 24.2325 12.9027 24.6049C11.689 20.9496 12.5313 16.7552 15.4352 13.8514ZM6.77 44.7986C2.67464 40.7033 2.67464 34.0393 6.76999 29.9439C10.8653 25.8486 17.5293 25.8486 21.6247 29.9439C25.72 34.0393 25.72 40.7033 21.6247 44.7986C17.5293 48.894 10.8653 48.894 6.77 44.7986ZM25.1662 30.6996C25.6436 29.0623 26.5253 27.5191 27.8141 26.2303C31.8885 22.1559 38.5051 22.1356 42.6053 26.1687C42.6263 26.1935 42.6469 26.218 42.6695 26.2406C42.6943 26.2654 42.7204 26.2883 42.7472 26.3112C46.7632 30.413 46.7374 37.0164 42.6688 41.0849C38.5731 45.1806 31.9095 45.1803 27.8141 41.0849C27.4347 40.7055 27.0911 40.3039 26.7822 39.8848C27.3983 36.7762 26.859 33.4832 25.1662 30.6996Z" fill="#283388"/>
<path d="M38.8728 32.7499C40.238 31.3846 40.238 29.1635 38.8728 27.7983C37.5075 26.4331 35.2864 26.4331 33.9212 27.7983C32.556 29.1635 32.556 31.3846 33.9212 32.7499C35.2864 34.1151 37.5075 34.1151 38.8728 32.7499ZM35.5717 31.0993C35.1165 30.6442 35.1165 29.904 35.5717 29.4488C36.0266 28.994 36.7671 28.9936 37.2222 29.4488C37.6774 29.904 37.6771 30.6445 37.2222 31.0993C36.7671 31.5545 36.0269 31.5545 35.5717 31.0993Z" fill="#283388"/>
<path d="M29.4917 39.4615C29.9501 39.9148 30.6893 39.9112 31.1432 39.4541C31.5939 38.9989 31.5913 38.2601 31.139 37.8078L31.1348 37.8036C30.914 37.584 30.62 37.4635 30.3079 37.4654C29.9962 37.467 29.7038 37.5892 29.4843 37.812C29.0336 38.2659 29.0356 39.0054 29.4885 39.4583L29.4917 39.4615Z" fill="#283388"/>
<path d="M33.618 41.4409C33.8059 41.6288 34.0455 41.7445 34.3114 41.7739C35.5032 41.9109 36.7353 41.78 37.8723 41.3935C39.0651 40.9886 40.1227 40.33 41.0183 39.4344C41.4731 38.9796 41.4731 38.2388 41.0183 37.7839C40.5634 37.329 39.8242 37.3294 39.3694 37.7823L39.3678 37.7839C38.1044 39.0473 36.3572 39.6572 34.5754 39.4551C33.9359 39.3816 33.3559 39.8429 33.2831 40.4818C33.2428 40.8374 33.3646 41.1875 33.618 41.4409Z" fill="#283388"/>
<path d="M18.3238 41.4976C16.0485 43.7728 12.3465 43.7729 10.0712 41.4976C9.61538 41.0418 8.87652 41.0418 8.42069 41.4976C7.96486 41.9534 7.96486 42.6923 8.42069 43.1481C11.606 46.3334 16.789 46.3334 19.9743 43.1481C20.4302 42.6923 20.4302 41.9534 19.9743 41.4976C19.5185 41.0418 18.7796 41.0418 18.3238 41.4976Z" fill="#283388"/>
</g>
<defs>
<clipPath id="clip0">
<rect width="55.5966" height="55.5966" fill="white" transform="translate(0.923828)"/>
</clipPath>
</defs>
</svg>
