<svg width="104" height="45" viewBox="0 0 104 45" fill="none" xmlns="http://www.w3.org/2000/svg">
<path d="M12.5988 35.5326C9.813 35.509 7.04294 35.1247 4.36216 34.3901L1.57016 35.4287C1.49691 35.4572 1.41756 35.4679 1.33908 35.4597C1.26059 35.4516 1.18537 35.4249 1.12001 35.382C1.05507 35.3409 1.0009 35.2858 0.961828 35.2208C0.922754 35.1559 0.899851 35.0831 0.894939 35.0081L0.182203 22.4611C0.176246 22.3955 0.18515 22.3294 0.208292 22.2675C0.231434 22.2056 0.268254 22.1494 0.316176 22.1027C0.361846 22.0547 0.417392 22.0165 0.479234 21.9905C0.541075 21.9646 0.60784 21.9515 0.675223 21.9521H0.78776C0.913328 21.953 1.03404 21.9992 1.12623 22.0819C1.21843 22.1645 1.27546 22.2775 1.28614 22.3987C1.44691 24.7149 2.08462 28.0231 4.20139 30.6509C6.22706 33.1541 9.12623 34.4212 12.8239 34.4212C17.111 34.4212 19.8869 32.749 19.8869 30.1575C19.8869 27.0727 15.8142 25.4836 11.5002 23.775C6.10916 21.6509 0 19.2256 0 13.2845C0 7.00058 6.75759 3.60935 13.1133 3.60935C15.9054 3.68037 18.6791 4.07085 21.3767 4.77265L23.74 3.73399C23.813 3.70109 23.8934 3.68624 23.9738 3.69077C24.0542 3.69531 24.1322 3.71907 24.2009 3.75995C24.2689 3.80293 24.3259 3.86032 24.3677 3.9278C24.4095 3.99527 24.4349 4.07107 24.442 4.14945L25.0208 14.7698C25.0246 14.9013 24.9767 15.0294 24.8868 15.1281C24.7896 15.2216 24.6593 15.2755 24.5224 15.2787H24.4152C24.2872 15.2802 24.1635 15.2333 24.0705 15.148C23.9775 15.0627 23.9224 14.9457 23.9168 14.8217C23.6275 9.93999 20.8408 4.72072 13.8742 4.72072C10.123 4.72072 7.77578 6.23716 7.77578 8.68321C7.77578 11.7057 11.527 13.1027 15.8999 14.723C21.2588 16.7173 27.3948 18.9867 27.3948 25.1823C27.3948 28.2983 25.8407 30.9261 22.904 32.8321C20.2245 34.5718 16.559 35.5274 12.5988 35.5274V35.5326ZM36.2048 10.3243C35.4776 10.369 34.7486 10.2689 34.0629 10.03C33.3772 9.79104 32.7493 9.41845 32.218 8.9352C31.6866 8.45194 31.2631 7.86828 30.9736 7.22023C30.6842 6.57218 30.5348 5.87351 30.5348 5.16734C30.5348 4.46117 30.6842 3.7625 30.9736 3.11445C31.2631 2.4664 31.6866 1.88274 32.218 1.39948C32.7493 0.916225 33.3772 0.54364 34.0629 0.304725C34.7486 0.0658093 35.4776 -0.0343645 36.2048 0.010387C36.9037 -9.07754e-06 37.5977 0.12503 38.246 0.378162C38.8943 0.631294 39.4838 1.00741 39.9801 1.48443C40.4763 1.96145 40.8692 2.52975 41.1356 3.15596C41.402 3.78217 41.5367 4.45366 41.5316 5.13099C41.5316 6.50296 40.9714 7.81919 39.9734 8.79224C38.9753 9.76528 37.6205 10.3161 36.2048 10.3243ZM44.2593 35.2106H28.1825C28.0513 35.2093 27.9259 35.1578 27.8336 35.0673C27.7413 34.9769 27.6895 34.8548 27.6895 34.7276V34.6186C27.6895 34.4914 27.7413 34.3693 27.8336 34.2789C27.9259 34.1885 28.0513 34.137 28.1825 34.1356C31.1996 34.1356 31.5801 33.554 31.5801 28.9423V18.5557C31.5801 16.8575 31.3604 15.959 30.8405 15.5851C30.3207 15.2112 29.2865 15.206 27.7109 15.6163C27.6454 15.6348 27.5766 15.6398 27.5089 15.6309C27.4413 15.622 27.3763 15.5995 27.3182 15.5647C27.2601 15.53 27.2102 15.4838 27.1717 15.4291C27.1332 15.3745 27.1069 15.3126 27.0947 15.2475V15.1385C27.0629 15.0167 27.0809 14.8877 27.1448 14.7784C27.2086 14.6691 27.3135 14.5879 27.4376 14.5516L40.2347 11.2123C40.309 11.1955 40.3862 11.1941 40.461 11.2085C40.5359 11.2228 40.6067 11.2524 40.6688 11.2954C40.7292 11.3409 40.7781 11.3991 40.8115 11.4658C40.845 11.5324 40.8621 11.6056 40.8617 11.6797L40.8617 28.9371C40.8617 33.5747 41.2422 34.1304 44.2593 34.1304C44.3914 34.1304 44.5182 34.1813 44.6117 34.2719C44.7051 34.3624 44.7576 34.4853 44.7576 34.6134V34.7224C44.7576 34.8505 44.7051 34.9734 44.6117 35.064C44.5182 35.1545 44.3914 35.2054 44.2593 35.2054V35.2106ZM57.544 16.6238L57.544 29.8044C57.544 33.4657 57.7637 34.3953 59.8216 34.3953C61.8794 34.3953 63.7711 33.0502 63.7711 23.3024C63.7711 20.7421 63.7711 13.9544 60.6897 13.9544C59.6179 13.9544 58.4979 15.2787 57.5655 16.6134L57.544 16.6238ZM61.8419 44.9844H44.8863C44.755 44.9844 44.6291 44.9343 44.5357 44.8448C44.4424 44.7553 44.3893 44.6338 44.3879 44.5066V44.3976C44.3879 44.2695 44.4404 44.1466 44.5339 44.0561C44.6273 43.9655 44.7541 43.9146 44.8863 43.9146C47.898 43.9146 48.2785 43.3278 48.2785 38.6953L48.2785 18.5297C48.2785 16.8367 48.0641 15.9331 47.5496 15.5643C47.0352 15.1956 46.0224 15.18 44.4093 15.5903C44.3438 15.6088 44.275 15.6138 44.2073 15.6049C44.1396 15.5961 44.0747 15.5735 44.0166 15.5387C43.9585 15.504 43.9086 15.4578 43.8701 15.4032C43.8316 15.3485 43.8053 15.2867 43.793 15.2216V15.1125C43.7673 14.9951 43.7877 14.8726 43.8501 14.7689C43.9125 14.6652 44.0125 14.5878 44.1307 14.5516L57.0188 11.2123C57.0934 11.194 57.1712 11.1924 57.2464 11.2077C57.3217 11.223 57.3923 11.2548 57.4529 11.3006C57.5142 11.3474 57.5631 11.4075 57.5957 11.4761C57.6283 11.5447 57.6436 11.6199 57.6405 11.6953L57.5547 14.7282C59.5 12.2977 61.5846 11.1968 64.1676 11.1968C65.4228 11.2092 66.6602 11.4854 67.7945 12.0063C68.9288 12.5273 69.933 13.2805 70.7377 14.2141C72.5971 16.4037 73.5807 19.1691 73.5082 22.004C73.5445 25.4797 72.2434 28.8439 69.8588 31.4403C68.6269 32.7501 67.1228 33.7924 65.4455 34.4986C63.7682 35.2048 61.9557 35.559 60.127 35.5378C59.2334 35.5299 58.3442 35.4148 57.4797 35.195L57.5387 38.6901C57.6244 43.2239 57.6351 43.9198 61.8258 43.9198C61.958 43.9198 62.0847 43.9707 62.1782 44.0613C62.2717 44.1518 62.3242 44.2747 62.3242 44.4028V44.5118C62.3228 44.639 62.2696 44.7605 62.1763 44.85C62.083 44.9394 61.9571 44.9896 61.8258 44.9896L61.8419 44.9844ZM87.2163 16.629V29.8044C87.2163 33.4657 87.436 34.3953 89.4939 34.3953C91.5517 34.3953 93.422 33.0502 93.422 23.3024C93.422 20.7421 93.422 13.9544 90.3406 13.9544C89.242 13.9544 88.1488 15.2787 87.2163 16.6134V16.629ZM91.5035 45H74.5532C74.422 45 74.296 44.9498 74.2027 44.8604C74.1094 44.7709 74.0562 44.6494 74.0548 44.5222V44.4132C74.0548 44.2851 74.1073 44.1622 74.2008 44.0716C74.2943 43.9811 74.421 43.9302 74.5532 43.9302C77.5649 43.9302 77.9454 43.3433 77.9454 38.7109V18.5297C77.9454 16.8367 77.731 15.9331 77.2166 15.5643C76.7021 15.1956 75.6893 15.18 74.0763 15.5903C74.0107 15.6088 73.9419 15.6138 73.8742 15.6049C73.8066 15.5961 73.7416 15.5735 73.6835 15.5387C73.6254 15.504 73.5755 15.4578 73.537 15.4032C73.4985 15.3485 73.4723 15.2867 73.46 15.2216V15.1125C73.4352 14.9923 73.4586 14.8675 73.5252 14.7634C73.5919 14.6592 73.6969 14.5835 73.819 14.5516L86.6804 11.2123C86.7549 11.194 86.8328 11.1924 86.908 11.2077C86.9833 11.223 87.0539 11.2548 87.1145 11.3006C87.1757 11.3474 87.2247 11.4075 87.2573 11.4761C87.2899 11.5447 87.3052 11.6199 87.3021 11.6953L87.2163 14.7282C89.1616 12.2977 91.2462 11.1968 93.8292 11.1968C95.0871 11.2069 96.3277 11.4821 97.4649 12.0031C98.6021 12.5241 99.6089 13.2785 100.415 14.2141C102.275 16.4037 103.258 19.1691 103.186 22.004C103.222 25.4797 101.921 28.8439 99.5365 31.4403C98.3046 32.7501 96.8005 33.7924 95.1232 34.4986C93.4459 35.2048 91.6333 35.559 89.8047 35.5378C88.911 35.5299 88.0218 35.4148 87.1574 35.195L87.2163 38.6901C87.3021 43.2239 87.3128 43.9198 91.5035 43.9198C91.5691 43.9191 91.6342 43.9311 91.695 43.9551C91.7558 43.9792 91.811 44.0147 91.8575 44.0597C91.9039 44.1047 91.9406 44.1582 91.9654 44.2171C91.9902 44.276 92.0026 44.3392 92.0018 44.4028V44.5118C92.0018 44.575 91.9889 44.6376 91.9638 44.6959C91.9387 44.7542 91.9019 44.8071 91.8556 44.8515C91.8092 44.896 91.7542 44.931 91.6938 44.9547C91.6333 44.9785 91.5686 44.9903 91.5035 44.9896V45Z" fill="#283388"/>
</svg>
