<svg width="60" height="60" viewBox="0 0 60 60" fill="none" xmlns="http://www.w3.org/2000/svg">
<path d="M58.8435 27.6484H58.8107C52.6044 29.0171 47.9075 31.1968 44.3544 33.6765C44.5169 32.5796 44.6966 31.4859 44.8935 30.3952L44.9778 29.9265C45.7982 25.4406 46.3841 22.2015 47.945 17.7812C48.2591 16.8859 50.0591 13.8531 50.6872 13.3749C50.8917 13.2332 51.0316 13.016 51.076 12.7712C51.1203 12.5264 51.0657 12.274 50.9239 12.0695C50.7822 11.865 50.5651 11.7251 50.3202 11.6807C50.0754 11.6363 49.823 11.691 49.6185 11.8327L49.5528 11.8843C44.1153 16.0046 39.9997 21.5827 36.995 26.8843C36.0294 20.5937 34.2935 12.9515 31.7872 3.95774C31.7318 3.7667 31.6171 3.59822 31.4597 3.47667C31.3023 3.35512 31.1102 3.28679 30.9114 3.28157C30.7126 3.27635 30.5172 3.33451 30.3536 3.44764C30.19 3.56076 30.0666 3.72299 30.0013 3.91087C29.72 4.74993 25.4919 17.5562 24.2404 29.2609C21.1607 23.3312 16.6419 16.6327 10.3747 11.889C10.1828 11.7405 9.9407 11.6722 9.69944 11.6986C9.45818 11.7249 9.23653 11.8437 9.0811 12.0301C8.92568 12.2165 8.84859 12.4559 8.86605 12.698C8.88351 12.94 8.99416 13.1659 9.17473 13.3281L9.24035 13.3796C9.86848 13.8484 11.6638 16.8906 11.9825 17.7859C13.5341 22.2015 14.1294 25.4452 14.9497 29.9312L15.0341 30.3999C15.2357 31.4921 15.4091 32.5843 15.5732 33.6812C12.0154 31.1827 7.32316 28.9937 1.11691 27.6484H1.0841C0.846484 27.6108 0.603499 27.6659 0.405423 27.8025C0.207348 27.939 0.0693425 28.1465 0.0199634 28.3819C-0.0294158 28.6174 0.0136107 28.8628 0.14014 29.0674C0.266669 29.272 0.467016 29.4202 0.699726 29.4812C0.741914 29.4812 5.10129 30.6577 11.4013 42.0109C11.795 42.9062 16.4732 53.2609 23.5419 55.3374C25.7681 56.2334 28.1408 56.7102 30.5403 56.7437C33.2594 56.7631 35.9293 56.0193 38.2466 54.5968C44.27 51.4702 48.17 42.8406 48.5263 42.0249C54.7794 30.7515 59.12 29.5234 59.2232 29.4952C59.4559 29.4342 59.6562 29.2861 59.7827 29.0815C59.9093 28.8769 59.9523 28.6314 59.9029 28.396C59.8535 28.1605 59.7155 27.9531 59.5175 27.8165C59.3194 27.68 59.0764 27.6248 58.8388 27.6624L58.8435 27.6484ZM30.8263 7.55306C33.3575 16.989 34.806 24.1609 35.5138 29.5843C33.3634 33.7593 31.627 38.1349 30.3294 42.6484C30.1841 43.2015 30.0669 43.7312 29.9638 44.2421C29.8607 43.7312 29.7388 43.2062 29.5982 42.6531C28.6044 39.1729 27.338 35.7765 25.8107 32.4952C26.3685 23.4999 29.2888 12.7187 30.8263 7.55306ZM24.3388 53.5984C23.3641 53.2454 22.4229 52.8062 21.5263 52.2859C21.466 52.2487 21.4014 52.2188 21.3341 52.1968C16.4544 48.8124 13.1263 41.3031 13.0888 41.2046L13.0466 41.1249C10.2341 36.0249 7.72629 32.8421 5.75754 30.8593C13.6747 33.5312 19.3138 37.9984 22.5575 44.1765C24.138 47.1443 25.065 50.416 25.2763 53.7718C24.9603 53.7349 24.6471 53.6769 24.3388 53.5984ZM27.0857 53.1296C26.8089 49.7348 25.8524 46.4303 24.2732 43.4124C22.6418 40.3057 20.4114 37.5527 17.7107 35.3124C17.4669 33.564 17.195 31.8109 16.8763 30.0577L16.7919 29.589C15.981 25.1593 15.3857 21.9202 13.895 17.5796C23.781 28.0609 27.7372 42.9484 27.7794 43.1171C28.1904 44.5933 28.4511 46.1072 28.5575 47.6359C28.6279 48.9812 28.5575 50.9171 27.7513 52.3562C27.5855 52.6506 27.3642 52.91 27.0997 53.1202L27.0857 53.1296ZM28.2107 54.6343C28.6843 54.2582 29.0779 53.7913 29.3685 53.2609C29.6119 52.8136 29.8082 52.3424 29.9544 51.8546C30.1047 52.3409 30.3009 52.8118 30.5403 53.2609C30.8643 53.8472 31.3122 54.3559 31.8528 54.7515C30.6426 54.8532 29.4245 54.8091 28.2247 54.6202L28.2107 54.6343ZM32.1857 52.3702C31.3935 50.9077 31.3091 48.9999 31.3794 47.6499C31.4827 46.117 31.7402 44.5984 32.1482 43.1171C32.1903 42.9484 36.1466 28.0609 46.0325 17.5796C44.5325 21.9202 43.9466 25.1593 43.1263 29.589L43.0419 30.0577C42.7232 31.8062 42.456 33.564 42.2075 35.3124C39.5068 37.5527 37.2764 40.3057 35.645 43.4124C34.0699 46.4319 33.1137 49.7356 32.8325 53.1296C32.5703 52.9147 32.3508 52.6523 32.1857 52.3562V52.3702ZM46.8528 41.1202L46.8107 41.1999C46.7685 41.2984 43.3044 49.1687 38.195 52.4499C38.0744 52.4768 37.9599 52.5261 37.8575 52.5952C37.6466 52.7406 37.4357 52.8765 37.22 53.0031C36.4167 53.4153 35.5473 53.6834 34.6513 53.7952C34.857 50.4427 35.7725 47.1721 37.3372 44.1999C40.581 38.0218 46.22 33.5546 54.1372 30.8827C52.1825 32.8656 49.6888 36.039 46.8622 41.1484L46.8528 41.1202Z" fill="#283388"/>
</svg>
