<svg width="60" height="60" viewBox="0 0 60 60" fill="none" xmlns="http://www.w3.org/2000/svg">
<g clip-path="url(#clip0)">
<path d="M55.2514 27.0071C54.8504 27.0049 54.4598 27.1351 54.1403 27.3774C51.6253 29.2499 49.212 31.2552 46.9107 33.3848C46.6737 33.5997 46.4588 33.8145 46.2366 34.0293C46.7613 33.0072 47.056 31.8826 47.0999 30.7346C47.1439 29.5865 46.936 28.4427 46.491 27.3835C46.046 26.3242 45.3746 25.3752 44.5239 24.603C43.6732 23.8308 42.6638 23.2541 41.5665 22.9134C40.4693 22.5727 39.3108 22.4763 38.1723 22.6309C37.0339 22.7854 35.943 23.1872 34.9763 23.8081C34.0096 24.429 33.1905 25.254 32.5765 26.225C31.9624 27.1961 31.5683 28.2898 31.4218 29.4293C30.5477 28.0515 29.6292 26.6663 28.6959 25.2663C29.2344 25.3966 29.7863 25.4637 30.3403 25.4663C31.3677 25.4674 32.3825 25.2406 33.3117 24.8024C34.2409 24.3641 35.0613 23.7252 35.7139 22.9318C36.3665 22.1383 36.835 21.21 37.0857 20.2137C37.3364 19.2174 37.3631 18.1779 37.1637 17.1701C36.9644 16.1622 36.5441 15.2111 35.933 14.3853C35.3219 13.5594 34.5352 12.8794 33.6297 12.3941C32.7242 11.9088 31.7223 11.6303 30.6963 11.5788C29.6702 11.5272 28.6455 11.7039 27.6959 12.096C28.0216 11.4531 28.2346 10.759 28.3255 10.0441C28.4559 9.2109 28.4169 8.35998 28.2109 7.54218C28.005 6.72439 27.6363 5.95651 27.1268 5.28443C26.6174 4.61236 25.9777 4.04988 25.246 3.63062C24.5142 3.21136 23.7055 2.94392 22.8681 2.84429C22.0306 2.74465 21.1817 2.81487 20.372 3.05074C19.5624 3.28661 18.8086 3.68329 18.1557 4.21707C17.5028 4.75086 16.9642 5.41079 16.5721 6.15743C16.18 6.90407 15.9425 7.7221 15.8737 8.56262C15.8406 8.93967 15.8406 9.3189 15.8737 9.69595C15.5774 9.40706 15.2885 9.11077 14.9922 8.82929C15.2487 8.26339 15.4161 7.6612 15.4885 7.0441C15.5887 6.22278 15.5258 5.38974 15.3032 4.59283C15.0805 3.79592 14.7027 3.05085 14.1913 2.4004C13.6799 1.74995 13.045 1.20695 12.3231 0.802583C11.6012 0.398217 10.8066 0.140455 9.98477 0.044102C8.33406 -0.152491 6.67272 0.313277 5.3648 1.33935C4.05687 2.36542 3.20901 3.86812 3.00699 5.51818C2.8104 7.16889 3.27617 8.83022 4.30224 10.1382C5.32831 11.4461 6.83101 12.2939 8.48107 12.496C8.72696 12.5245 8.97426 12.5393 9.22181 12.5404C10.1176 12.536 11.0021 12.3401 11.8159 11.9657C12.6297 11.5914 13.3541 11.0473 13.9403 10.37C15.0514 11.4515 16.1255 12.5552 17.1625 13.6663H16.8663C15.2337 13.6663 13.668 14.3149 12.5136 15.4692C11.3592 16.6236 10.7107 18.1893 10.7107 19.8219C10.7107 21.4544 11.3592 23.0201 12.5136 24.1745C13.668 25.3289 15.2337 25.9774 16.8663 25.9774C17.6266 25.9818 18.3809 25.841 19.0885 25.5626C17.8746 26.4254 16.9305 27.615 16.366 28.9931C15.8016 30.3713 15.6399 31.8813 15.8998 33.3477C16.1597 34.8141 16.8306 36.1766 17.8343 37.2768C18.8381 38.377 20.1335 39.1696 21.57 39.5626C17.0793 40.0801 12.6259 40.8817 8.23662 41.9626C7.82473 42.0704 7.46207 42.3157 7.20877 42.658C6.95548 43.0002 6.82678 43.4187 6.84403 43.8441C6.86277 44.2691 7.02787 44.6746 7.31136 44.9919C7.59486 45.3091 7.97931 45.5186 8.39959 45.5848C8.47366 45.5848 16.1033 46.8589 19.7107 49.0885L20.3996 49.5182C23.4959 51.4367 26.9996 53.6219 29.807 53.6219C30.4391 53.6475 31.0686 53.5272 31.6466 53.2703C32.2247 53.0134 32.7358 52.6267 33.1403 52.1404C33.9128 51.2531 34.4074 50.1584 34.5625 48.9922C37.2374 50.5281 39.6402 52.4953 41.6737 54.8145C42.7329 57.7774 43.2292 59.5256 43.244 59.5922C43.274 59.7112 43.3276 59.823 43.4018 59.9207C43.4759 60.0185 43.5691 60.1002 43.6756 60.1611C43.7821 60.222 43.8998 60.2607 44.0217 60.275C44.1436 60.2892 44.2671 60.2787 44.3848 60.2441C44.5017 60.2124 44.6113 60.1579 44.7071 60.0836C44.8029 60.0094 44.883 59.9169 44.9429 59.8116C45.0028 59.7062 45.0413 59.5901 45.0561 59.4698C45.0709 59.3495 45.0618 59.2275 45.0292 59.1108C45.0292 59.0441 44.5551 57.4071 43.5996 54.6663C43.6289 54.5321 43.6289 54.3931 43.5996 54.2589C43.2144 53.0515 44.1255 50.1182 45.0811 47.733C45.9433 48.2873 46.9527 48.5687 47.9774 48.5404C51.9551 48.5404 52.6588 43.2737 53.2292 39.0367L53.3181 38.3923C53.6811 35.696 55.9477 31.3552 56.8366 29.8293C57.0062 29.5444 57.0982 29.22 57.1033 28.8885C57.1072 28.6429 57.0622 28.3989 56.9709 28.1708C56.8796 27.9427 56.7438 27.735 56.5715 27.5599C56.3991 27.3848 56.1937 27.2457 55.967 27.1508C55.7404 27.0559 55.4971 27.007 55.2514 27.0071ZM8.70329 10.6589C7.82804 10.558 7.00253 10.1993 6.33161 9.62822C5.66068 9.05717 5.17462 8.2996 4.93515 7.45172C4.69568 6.60385 4.71361 5.70393 4.98667 4.86627C5.25972 4.02861 5.77558 3.291 6.46872 2.74714C7.16187 2.20327 8.00101 1.87769 8.87958 1.81174C9.75815 1.74579 10.6365 1.94245 11.4031 2.37674C12.1696 2.81103 12.7898 3.46336 13.1849 4.25087C13.5799 5.03838 13.732 5.92553 13.6218 6.79966C13.4754 7.96101 12.8767 9.01771 11.9558 9.74029C11.0349 10.4629 9.86613 10.793 8.70329 10.6589ZM51.7329 31.6145C46.2959 38.6293 44.444 44.37 44.1848 45.133L44.1329 45.2367C43.7479 45.1658 43.3899 44.99 43.0984 44.7286C42.8069 44.4671 42.5933 44.1303 42.4811 43.7552C41.2218 40.9182 47.5403 35.0811 51.7329 31.6145ZM39.207 24.4441C40.4002 24.4426 41.567 24.7952 42.5597 25.4572C43.5524 26.1192 44.3263 27.0608 44.7836 28.1629C45.2409 29.2649 45.361 30.4779 45.1285 31.6482C44.8961 32.8186 44.3217 33.8936 43.478 34.7373C42.6343 35.581 41.5592 36.1554 40.3889 36.3879C39.2186 36.6203 38.0056 36.5002 36.9035 36.043C35.8015 35.5857 34.8598 34.8117 34.1979 33.819C33.5359 32.8263 33.1833 31.6595 33.1848 30.4663C33.1887 28.8703 33.8244 27.3408 34.953 26.2123C36.0815 25.0838 37.611 24.448 39.207 24.4441ZM21.6959 16.0367C21.6203 15.9356 21.5387 15.8391 21.4514 15.7478L21.244 15.5034H21.3477C21.5936 15.5321 21.8409 15.5469 22.0885 15.5478C22.8185 15.5458 23.5426 15.418 24.2292 15.17C23.7298 16.0817 23.4436 17.0948 23.3922 18.133C22.8514 17.4219 22.2811 16.7256 21.6959 16.0367ZM35.4366 18.5182C35.4381 19.5277 35.1397 20.5149 34.5793 21.3546C34.0188 22.1943 33.2217 22.8486 32.2888 23.2346C31.356 23.6206 30.3296 23.7208 29.3397 23.5226C28.3498 23.3244 27.4411 22.8366 26.7288 22.1212C26.0166 21.4058 25.5328 20.495 25.3389 19.5043C25.145 18.5135 25.2498 17.4875 25.6398 16.5564C26.0299 15.6253 26.6877 14.831 27.5298 14.2742C28.3719 13.7175 29.3604 13.4234 30.37 13.4293C31.7152 13.4371 33.0027 13.9765 33.9518 14.9298C34.901 15.8831 35.4347 17.173 35.4366 18.5182ZM17.7107 8.76262C17.8453 7.694 18.3634 6.71062 19.1686 5.99531C19.9739 5.28 21.0114 4.88144 22.0885 4.87373C22.2661 4.86271 22.4442 4.86271 22.6218 4.87373C23.4978 4.97344 24.3244 5.33143 24.9964 5.90219C25.6684 6.47295 26.1554 7.23067 26.3956 8.079C26.6357 8.92732 26.6182 9.82791 26.3451 10.6662C26.072 11.5045 25.5558 12.2427 24.862 12.7868C24.1683 13.3309 23.3284 13.6564 22.4492 13.7218C21.5699 13.7873 20.6911 13.5898 19.9244 13.1544C19.1578 12.719 18.5379 12.0654 18.1437 11.2768C17.7495 10.4882 17.5988 9.60012 17.7107 8.72558V8.76262ZM12.5922 19.8367C12.6003 18.9814 12.8639 18.1481 13.3492 17.4437C13.8345 16.7394 14.5193 16.1963 15.3156 15.8841C16.1119 15.572 16.9834 15.505 17.8181 15.6919C18.6527 15.8788 19.4124 16.311 19.9996 16.933L20.2366 17.2071C20.6686 17.7444 20.9649 18.3779 21.1004 19.0539C21.236 19.7299 21.2069 20.4286 21.0156 21.091C20.8242 21.7534 20.4763 22.36 20.0011 22.8596C19.5259 23.3592 18.9375 23.7371 18.2855 23.9614C17.6336 24.1857 16.9372 24.2497 16.2552 24.1482C15.5733 24.0466 14.9258 23.7824 14.3674 23.3779C13.8091 22.9734 13.3563 22.4405 13.0473 21.8241C12.7383 21.2078 12.5822 20.5261 12.5922 19.8367ZM22.9996 20.5774C24.007 21.8737 24.9774 23.17 25.8959 24.4737C25.1752 24.2556 24.4266 24.1434 23.6737 24.1404C22.6391 24.1404 21.6146 24.3443 20.6588 24.7404C21.3044 24.2318 21.8411 23.5985 22.2369 22.8783C22.6326 22.158 22.8794 21.3654 22.9625 20.5478L22.9996 20.5774ZM17.5996 31.9848C17.5996 30.792 17.9534 29.6259 18.6163 28.6342C19.2792 27.6425 20.2213 26.8696 21.3235 26.4135C22.4257 25.9573 23.6384 25.8384 24.8083 26.0716C25.9781 26.3049 27.0525 26.8799 27.8954 27.7239C28.7384 28.5679 29.3121 29.6429 29.5439 30.8131C29.7757 31.9832 29.6552 33.1958 29.1977 34.2974C28.7402 35.3991 27.9662 36.3402 26.9737 37.0019C25.9812 37.6636 24.8147 38.0159 23.6218 38.0145C22.0239 38.0125 20.4922 37.3764 19.363 36.2458C18.2338 35.1153 17.5996 33.5827 17.5996 31.9848ZM33.1551 46.3034C32.6588 46.096 25.1848 42.9626 13.0663 42.7922C17.4074 41.8481 21.8258 41.3026 26.2663 41.1626C29.644 41.1626 32.3848 41.7108 33.1996 43.333C33.9329 44.7774 33.607 45.7256 33.1403 46.3034H33.1551ZM31.6737 50.9626C31.4438 51.2383 31.1526 51.4563 30.8233 51.5991C30.4939 51.7419 30.1357 51.8055 29.7774 51.7848C27.3107 51.7848 23.6144 49.3552 20.6514 47.5256C18.57 46.2367 15.37 45.3034 12.7996 44.6367C24.7996 44.7997 32.3551 47.9774 32.4663 48.0219L32.6885 48.1182C32.7325 48.6379 32.6639 49.161 32.4875 49.6519C32.3111 50.1427 32.031 50.5898 31.6663 50.9626H31.6737ZM34.8663 47.0737C35.016 46.8409 35.1402 46.5925 35.2366 46.333C35.4502 45.7049 35.5276 45.0386 35.4638 44.3783C35.3999 43.718 35.1962 43.0789 34.8663 42.5034C33.7996 40.3923 31.0663 39.3478 26.5181 39.3108C27.8214 38.7941 28.9638 37.94 29.8281 36.8362C30.6924 35.7323 31.2476 34.4184 31.4366 33.0293C34.7523 38.6762 37.6442 44.5616 40.0885 50.6367C38.4948 49.2431 36.7389 48.0469 34.8588 47.0737H34.8663ZM36.1626 37.7774C37.2969 38.2561 38.5282 38.4599 39.7562 38.3724C40.9843 38.2848 42.1743 37.9084 43.2292 37.2737C40.7403 40.3108 39.9551 42.6737 40.7848 44.5626C41.0094 45.1368 41.3594 45.6535 41.8092 46.0751C42.259 46.4968 42.7973 46.8126 43.3848 46.9997C42.8804 48.2061 42.4524 49.4431 42.1033 50.7034C40.3535 46.2925 38.3704 41.9778 36.1626 37.7774ZM51.4588 38.1997C50.9625 41.8219 50.4588 46.7478 47.9848 46.7478C47.2058 46.8004 46.4366 46.5511 45.8366 46.0515L45.9033 45.9034C45.9033 45.8589 45.9033 45.8145 45.9551 45.7626C46.007 45.7108 47.7403 39.7552 53.3329 32.5923C52.4602 34.3562 51.8298 36.2299 51.4588 38.1626V38.1997ZM15.4292 17.7256C15.5868 17.8523 15.7032 18.0229 15.7638 18.2158C15.8243 18.4087 15.8264 18.6153 15.7695 18.8093C15.7127 19.0033 15.5997 19.1762 15.4446 19.306C15.2896 19.4357 15.0995 19.5166 14.8985 19.5384C14.6975 19.5601 14.4945 19.5218 14.3153 19.4282C14.1361 19.3346 13.9887 19.19 13.8916 19.0126C13.7946 18.8352 13.7524 18.633 13.7703 18.4316C13.7882 18.2302 13.8654 18.0386 13.9922 17.8811C14.0757 17.7758 14.1794 17.688 14.2972 17.6231C14.4149 17.5581 14.5444 17.5172 14.6782 17.5027C14.8119 17.4882 14.9471 17.5005 15.0761 17.5387C15.205 17.577 15.325 17.6405 15.4292 17.7256ZM42.0959 28.77C41.9389 28.6426 41.8232 28.4714 41.7635 28.2781C41.7038 28.0849 41.7028 27.8783 41.7606 27.6845C41.8183 27.4907 41.9323 27.3184 42.088 27.1893C42.2437 27.0603 42.4342 26.9804 42.6354 26.9596C42.8366 26.9389 43.0394 26.9783 43.2181 27.0728C43.3969 27.1674 43.5436 27.3128 43.6397 27.4908C43.7358 27.6687 43.7769 27.8712 43.7579 28.0725C43.7389 28.2739 43.6606 28.4651 43.5329 28.6219C43.4486 28.7322 43.3425 28.8241 43.2213 28.8918C43.1 28.9595 42.9662 29.0016 42.828 29.0155C42.6898 29.0294 42.5503 29.0148 42.418 28.9726C42.2857 28.9303 42.1634 28.8614 42.0588 28.77H42.0959ZM21.7774 7.40706C21.6204 7.27959 21.5047 7.10841 21.445 6.91518C21.3853 6.72195 21.3843 6.51536 21.4421 6.32155C21.4998 6.12774 21.6138 5.95541 21.7695 5.82638C21.9252 5.69734 22.1157 5.6174 22.3169 5.59666C22.518 5.57592 22.7208 5.61532 22.8996 5.70987C23.0784 5.80442 23.2251 5.94987 23.3212 6.12782C23.4173 6.30578 23.4584 6.50823 23.4394 6.70957C23.4204 6.91091 23.3421 7.10209 23.2144 7.25892C23.0434 7.46896 22.796 7.60255 22.5265 7.63032C22.2571 7.6581 21.9876 7.5778 21.7774 7.40706Z" fill="#283388"/>
</g>
<defs>
<clipPath id="clip0">
<rect width="60" height="60" fill="white"/>
</clipPath>
</defs>
</svg>
