<svg width="1262" height="554" viewBox="0 0 1262 554" fill="none" xmlns="http://www.w3.org/2000/svg">
<path d="M238.467 66.7942C247.019 72.4734 254.784 79.2583 261.561 86.973C270.365 97.3099 277.53 108.94 282.805 121.456L279.551 60.664L257.351 70.3702C256.015 70.8812 254.539 70.8812 253.204 70.3702C249.249 69.2208 244.209 67.8798 238.467 66.5388V66.7942ZM102.455 63.346C52.7588 77.4583 11.8659 111.43 11.8659 163.09C11.8659 228.671 77.7028 255.555 141.371 281.098C196.554 303.703 248.802 324.84 248.802 370.497C248.872 378.392 247.192 386.204 243.882 393.37C240.573 400.536 235.716 406.879 229.663 411.94C242.431 407.44 254.6 401.393 265.899 393.933C297.478 372.796 314.128 343.677 314.128 309.706C314.256 241.634 248.802 216.475 185.007 192.145C131.291 171.583 80.6374 152.107 80.6374 106.832C80.5364 98.4088 82.46 90.0844 86.246 82.5607C90.032 75.037 95.5694 68.5345 102.392 63.6014L102.455 63.346ZM17.6713 343.039L22.0094 421.583L49.6328 411.11C50.8983 410.704 52.2588 410.704 53.5243 411.11C61.9176 413.667 70.4345 415.799 79.0425 417.496C64.1946 409.099 51.1791 397.808 40.7652 384.29C31.072 371.758 23.2894 357.857 17.6713 343.039ZM149.983 436.908C116.819 436.618 83.8429 431.893 51.9294 422.86L18.692 435.631C17.82 435.982 16.8754 436.113 15.9411 436.012C15.0068 435.912 14.1113 435.584 13.3332 435.056C12.5601 434.552 11.9153 433.873 11.4501 433.075C10.985 432.277 10.7123 431.381 10.6538 430.459L2.16904 276.181C2.09813 275.374 2.20413 274.562 2.47962 273.801C2.75511 273.04 3.19344 272.348 3.76393 271.775C4.30761 271.184 4.96886 270.714 5.70505 270.395C6.44125 270.076 7.23605 269.915 8.03822 269.923H9.37792C10.8727 269.933 12.3098 270.502 13.4073 271.518C14.5048 272.534 15.1837 273.924 15.3109 275.414C17.2248 303.895 24.8164 344.571 50.0156 376.883C74.1302 407.662 108.644 423.243 152.662 423.243C203.699 423.243 236.745 402.681 236.745 370.816C236.745 332.886 188.26 313.345 136.905 292.336C72.7267 266.219 0 236.398 0 163.346C0 86.079 80.446 44.3805 156.107 44.3805C189.346 45.2538 222.366 50.055 254.48 58.6844L282.613 45.9131C283.483 45.5085 284.439 45.326 285.397 45.3817C286.354 45.4374 287.283 45.7297 288.1 46.2323C288.91 46.7608 289.589 47.4665 290.086 48.2961C290.583 49.1258 290.886 50.0578 290.971 51.0216L297.861 181.609C297.906 183.227 297.336 184.802 296.266 186.015C295.109 187.164 293.557 187.827 291.928 187.867H290.652C289.127 187.885 287.656 187.308 286.548 186.26C285.441 185.211 284.785 183.772 284.719 182.247C281.274 122.222 248.1 58.0458 165.166 58.0458C120.509 58.0458 92.5671 76.692 92.5671 106.769C92.5671 143.933 137.224 161.111 189.281 181.034C253.076 205.555 326.122 233.461 326.122 309.642C326.122 347.956 307.621 380.267 272.661 403.703C240.764 425.095 197.128 436.844 149.983 436.844V436.908ZM431.002 12.0051C417.397 11.954 404.327 17.3016 394.654 26.8765C384.981 36.4515 379.492 49.4735 379.391 63.0905C379.391 69.8746 380.726 76.5923 383.32 82.86C385.913 89.1277 389.715 94.8227 394.507 99.6198C399.3 104.417 404.989 108.222 411.251 110.818C417.513 113.414 424.224 114.751 431.002 114.751C437.779 114.751 444.49 113.414 450.752 110.818C457.014 108.222 462.703 104.417 467.496 99.6198C472.288 94.8227 476.09 89.1277 478.683 82.86C481.277 76.5923 482.612 69.8746 482.612 63.0905C482.612 56.3333 481.273 49.6431 478.673 43.4073C476.072 37.1716 472.262 31.5143 467.461 26.7629C462.661 22.0116 456.967 18.2608 450.709 15.7275C444.45 13.1943 437.752 11.9291 431.002 12.0051ZM431.002 126.947C422.344 127.498 413.666 126.266 405.503 123.328C397.34 120.39 389.865 115.809 383.54 109.867C377.214 103.925 372.173 96.7482 368.727 88.7798C365.281 80.8114 363.503 72.2206 363.503 63.5375C363.503 54.8545 365.281 46.2636 368.727 38.2952C372.173 30.3269 377.214 23.1501 383.54 17.208C389.865 11.2659 397.34 6.68459 405.503 3.74689C413.666 0.809191 422.344 -0.422546 431.002 0.127718C439.321 -0.000111628 447.583 1.53737 455.3 4.64988C463.018 7.76238 470.037 12.3871 475.944 18.2526C481.851 24.118 486.528 31.1058 489.7 38.8056C492.872 46.5055 494.475 54.7621 494.414 63.0905C494.414 79.9602 487.746 96.1447 475.864 108.109C463.983 120.074 447.855 126.846 431.002 126.947ZM374.734 421.583H487.779C476.169 410.535 474.638 389.654 474.638 356.066V151.724L370.524 179.374C371.888 180.129 373.208 180.96 374.479 181.864C385.643 190.421 387.94 206.449 387.94 227.841V355.555C387.94 389.399 386.345 410.025 374.734 421.072V421.583ZM526.886 432.949H335.5C333.937 432.932 332.445 432.299 331.346 431.187C330.247 430.075 329.631 428.575 329.631 427.011V425.67C329.631 424.105 330.247 422.605 331.346 421.493C332.445 420.381 333.937 419.748 335.5 419.731C371.417 419.731 375.946 412.579 375.946 355.874V228.16C375.946 207.279 373.331 196.232 367.142 191.634C360.954 187.037 348.642 186.973 329.886 192.017C329.106 192.245 328.286 192.307 327.481 192.197C326.676 192.088 325.902 191.811 325.21 191.383C324.519 190.956 323.925 190.388 323.466 189.716C323.008 189.045 322.696 188.284 322.549 187.484V186.143C322.172 184.645 322.385 183.059 323.146 181.715C323.906 180.372 325.155 179.373 326.632 178.927L478.976 137.867C479.86 137.659 480.778 137.643 481.67 137.819C482.561 137.995 483.404 138.36 484.143 138.889C484.862 139.447 485.444 140.164 485.842 140.983C486.24 141.803 486.445 142.703 486.44 143.614V355.81C486.44 412.834 490.969 419.667 526.886 419.667C528.459 419.667 529.969 420.293 531.081 421.406C532.194 422.52 532.819 424.031 532.819 425.606V426.947C532.819 428.522 532.194 430.032 531.081 431.146C529.969 432.26 528.459 432.885 526.886 432.885V432.949ZM725.672 159.77C770.903 163.729 770.903 249.489 770.903 286.589C770.903 351.723 765.544 400.957 743.599 422.668C774.198 417.143 802.105 401.627 822.96 378.543C849.428 348.835 863.853 310.301 863.407 270.497C863.407 201.532 820.6 149.553 763.822 149.553C750.378 149.387 737.143 152.898 725.545 159.706L725.672 159.77ZM685.035 204.406V366.474C685.035 411.493 687.65 422.924 712.148 422.924C736.645 422.924 759.165 406.385 759.165 286.526C759.165 255.044 759.165 171.583 722.483 171.583C709.724 171.583 696.39 187.867 685.29 204.278L685.035 204.406ZM672.914 200.702L674.253 151.596L569.246 179.438C570.654 180.176 571.999 181.03 573.265 181.992C584.302 190.549 586.917 206.513 586.917 227.841V475.797C586.917 509.577 585.386 530.203 573.776 541.314H688.607C675.848 530.522 674.508 510.408 673.87 475.861V370.497C673.87 368.582 678.336 409.514 679.867 408.364C681.398 407.215 683.631 419.156 680.697 419.028C673.807 406.576 673.807 387.675 673.807 366.283L672.914 200.702ZM736.199 553.128H534.35C532.788 553.128 531.288 552.511 530.177 551.411C529.066 550.311 528.434 548.817 528.417 547.253V545.912C528.417 544.337 529.042 542.826 530.155 541.713C531.267 540.599 532.777 539.973 534.35 539.973C570.203 539.973 574.732 532.757 574.732 475.797V227.841C574.732 207.024 572.181 195.913 566.056 191.379C559.932 186.845 547.875 186.653 528.672 191.698C527.892 191.926 527.073 191.987 526.267 191.878C525.462 191.769 524.688 191.492 523.997 191.064C523.305 190.637 522.711 190.069 522.253 189.397C521.794 188.725 521.482 187.965 521.336 187.164V185.823C521.03 184.379 521.272 182.873 522.015 181.598C522.758 180.323 523.948 179.371 525.355 178.927L678.783 137.867C679.67 137.641 680.597 137.622 681.492 137.81C682.388 137.998 683.229 138.389 683.95 138.952C684.679 139.527 685.262 140.267 685.65 141.11C686.038 141.954 686.221 142.878 686.183 143.806L685.162 181.098C708.32 151.213 733.136 137.675 763.886 137.675C778.828 137.828 793.559 141.224 807.062 147.63C820.565 154.035 832.519 163.297 842.099 174.776C864.235 201.7 875.944 235.703 875.081 270.561C875.513 313.298 860.024 354.664 831.636 386.589C816.971 402.695 799.066 415.511 779.099 424.194C759.131 432.878 737.553 437.233 715.784 436.972C705.146 436.875 694.56 435.459 684.269 432.758L684.971 475.733C685.992 531.48 686.119 540.037 736.007 540.037C737.581 540.037 739.09 540.663 740.202 541.776C741.315 542.89 741.94 544.401 741.94 545.976V547.317C741.923 548.881 741.291 550.375 740.18 551.475C739.069 552.575 737.57 553.192 736.007 553.192L736.199 553.128ZM1078.84 159.77C1124.07 163.729 1124.07 249.169 1124.07 286.589C1124.07 351.723 1118.72 400.957 1096.77 422.668C1127.38 417.174 1155.31 401.679 1176.2 378.607C1202.66 348.899 1217.09 310.364 1216.64 270.561C1216.64 201.596 1173.83 149.617 1117.06 149.617C1103.61 149.451 1090.38 152.962 1078.78 159.77H1078.84ZM1038.27 204.47V366.474C1038.27 411.493 1040.89 422.924 1065.38 422.924C1089.88 422.924 1112.14 406.385 1112.14 286.526C1112.14 255.044 1112.14 171.583 1075.46 171.583C1062.38 171.583 1049.37 187.867 1038.27 204.278V204.47ZM1025.89 200.702L1027.23 151.596L922.354 179.629C923.762 180.368 925.106 181.222 926.373 182.183C937.409 190.74 939.706 206.704 939.706 228.033V475.797C939.706 509.577 938.175 530.203 926.564 541.314H1041.4C1028.64 530.522 1027.3 510.408 1026.66 475.861V384.163C1026.66 382.311 1039.8 424.009 1033.04 424.073C1031.12 424.073 1029.59 422.924 1031.06 418.965H1033.42C1026.53 406.512 1026.53 387.611 1026.53 366.219L1025.89 200.702ZM1089.31 553.319H887.521C885.959 553.319 884.459 552.702 883.348 551.603C882.237 550.503 881.605 549.008 881.588 547.444V546.103C881.588 544.528 882.213 543.018 883.326 541.904C884.439 540.79 885.948 540.165 887.521 540.165C923.374 540.165 927.904 532.949 927.904 475.989V227.841C927.904 207.024 925.352 195.913 919.227 191.379C913.103 186.845 901.046 186.653 881.843 191.698C881.063 191.926 880.244 191.987 879.438 191.878C878.633 191.769 877.859 191.492 877.168 191.064C876.476 190.637 875.882 190.069 875.424 189.397C874.965 188.725 874.653 187.965 874.507 187.164V185.823C874.212 184.345 874.49 182.811 875.284 181.53C876.077 180.25 877.328 179.319 878.781 178.927L1031.89 137.867C1032.78 137.641 1033.7 137.622 1034.6 137.81C1035.5 137.998 1036.34 138.389 1037.06 138.952C1037.79 139.527 1038.37 140.267 1038.76 141.11C1039.15 141.954 1039.33 142.878 1039.29 143.806L1038.27 181.098C1061.43 151.213 1086.24 137.675 1116.99 137.675C1131.97 137.8 1146.74 141.183 1160.27 147.59C1173.81 153.996 1185.8 163.272 1195.4 174.776C1217.53 201.7 1229.24 235.703 1228.38 270.561C1228.81 313.298 1213.32 354.664 1184.94 386.589C1170.27 402.695 1152.36 415.511 1132.4 424.194C1112.43 432.878 1090.85 437.233 1069.08 436.972C1058.44 436.875 1047.86 435.459 1037.57 432.758L1038.27 475.733C1039.29 531.48 1039.42 540.037 1089.31 540.037C1090.09 540.029 1090.86 540.176 1091.59 540.472C1092.31 540.767 1092.97 541.204 1093.52 541.757C1094.07 542.311 1094.51 542.969 1094.8 543.693C1095.1 544.417 1095.25 545.194 1095.24 545.976V547.317C1095.24 548.094 1095.09 548.863 1094.79 549.58C1094.49 550.297 1094.05 550.947 1093.5 551.494C1092.95 552.04 1092.29 552.471 1091.57 552.763C1090.85 553.054 1090.08 553.2 1089.31 553.192V553.319ZM1242.8 147.445H1244.01C1245.86 147.445 1246.43 146.615 1246.43 144.38V143.55C1246.43 141.826 1245.99 140.804 1244.07 140.804H1243.05L1242.8 147.445ZM1242.8 149.808V159.259H1239.99V138.442H1244.01C1247.14 138.442 1248.86 139.719 1248.86 143.359V144.189C1248.86 147.254 1247.71 148.212 1246.75 148.531C1248.03 149.106 1248.67 150 1248.67 152.809V159.195H1245.99C1245.85 157.069 1245.85 154.936 1245.99 152.809C1245.99 150.191 1245.6 149.553 1243.69 149.553L1242.8 149.808ZM1244.01 134.227C1241.1 134.227 1238.25 135.092 1235.82 136.713C1233.4 138.334 1231.51 140.638 1230.39 143.333C1229.28 146.028 1228.99 148.994 1229.56 151.856C1230.12 154.717 1231.53 157.345 1233.59 159.408C1235.65 161.471 1238.28 162.876 1241.13 163.445C1243.99 164.015 1246.96 163.722 1249.65 162.606C1252.34 161.49 1254.64 159.599 1256.26 157.173C1257.88 154.747 1258.75 151.895 1258.75 148.978C1258.73 145.071 1257.17 141.329 1254.41 138.566C1251.65 135.803 1247.91 134.244 1244.01 134.227ZM1244.01 166.794C1240.49 166.794 1237.05 165.749 1234.12 163.791C1231.19 161.834 1228.91 159.051 1227.57 155.796C1226.22 152.54 1225.87 148.958 1226.55 145.502C1227.24 142.046 1228.93 138.872 1231.42 136.38C1233.91 133.888 1237.08 132.192 1240.54 131.504C1243.99 130.817 1247.57 131.17 1250.82 132.518C1254.07 133.867 1256.85 136.15 1258.81 139.08C1260.76 142.01 1261.81 145.454 1261.81 148.978C1261.84 151.339 1261.41 153.683 1260.53 155.874C1259.65 158.065 1258.34 160.06 1256.69 161.741C1255.03 163.423 1253.06 164.758 1250.88 165.669C1248.7 166.581 1246.37 167.05 1244.01 167.049" fill="#F49EC4"/>
</svg>
