<svg width="60" height="60" viewBox="0 0 60 60" fill="none" xmlns="http://www.w3.org/2000/svg">
<g clip-path="url(#clip0)">
<path d="M42.6498 38.4552C42.8301 38.5955 43.019 38.7245 43.2153 38.8414L43.3809 38.9449C44.4949 39.4653 45.7099 39.7337 46.9395 39.7311H47.2981C47.4843 39.7311 47.6774 39.7311 47.8567 39.6897C49.3111 39.5226 50.7178 39.0678 51.9947 38.3518C54.0395 37.1954 55.8257 35.6322 57.2429 33.7587C57.4015 33.5518 57.5395 33.3587 57.6705 33.1656L57.7947 32.9932C59.3311 30.4343 60.0973 27.4867 60.0015 24.5035C59.8498 21.5449 58.7188 19.1863 56.8291 17.8552C56.7194 17.782 56.6041 17.7174 56.4843 17.6621L56.3257 17.5932C55.3591 17.176 54.3163 16.9647 53.2636 16.9725C51.4923 17.0197 49.7583 17.4928 48.2084 18.3518C45.8402 19.6194 43.8036 21.4268 42.2636 23.6276C40.6823 26.2357 39.8962 29.2484 40.0015 32.2966C40.1326 35.0552 41.0636 37.2207 42.6222 38.4552H42.6498ZM56.4912 20.4207L56.6429 20.6276C57.4502 21.8058 57.8982 23.1929 57.9326 24.6207C58.0178 26.9471 57.4873 29.2548 56.3946 31.3104C56.317 31.4742 56.2295 31.6331 56.1326 31.7863L56.036 31.9449C54.7175 33.8263 53.001 35.3944 51.0084 36.538C49.9887 37.1247 48.8642 37.5065 47.6981 37.6621C47.5257 37.6621 47.3464 37.6621 47.1257 37.6621H46.8567H45.8912L46.6291 37.0483C50.7671 33.6828 51.6291 30.1932 51.9533 26.9173C52.1119 25.3242 52.236 24.0621 52.7671 23.0828C53.374 21.9794 54.4567 21.1794 56.2912 20.4897L56.4912 20.4207ZM43.6291 25.4345C43.7188 25.2483 43.8291 25.069 43.9257 24.9035L44.0222 24.7449C45.3715 22.8499 47.136 21.2884 49.1809 20.1794C50.3599 19.5054 51.68 19.1157 53.036 19.0414H54.2498L53.236 19.7311C52.2763 20.3285 51.4782 21.1527 50.9119 22.1311C50.2821 23.4469 49.9344 24.8799 49.8912 26.338V26.738V26.8966C49.5947 29.9656 49.3119 32.869 44.0084 36.4759L43.7533 36.6483L43.5533 36.4138C42.6549 35.2085 42.171 33.7447 42.174 32.2414C42.1015 29.8928 42.6284 27.5645 43.705 25.4759L43.6291 25.4345ZM2.32569 20.6483C3.82804 23.3125 6.16035 25.4123 8.96707 26.6276C10.0397 27.0693 11.1864 27.3033 12.3464 27.3173H13.0705C14.3144 27.2177 15.5071 26.7788 16.5188 26.0483L16.8567 25.7932L17.2084 25.5173C17.7388 25.0727 18.2033 24.5548 18.5878 23.9794L18.9671 23.4207L19.2015 24.0552C19.6178 25.2566 20.1562 26.4121 20.8084 27.5035C22.8774 30.869 25.636 32.7863 28.6084 32.8966H28.6843C31.6774 32.7863 34.4222 30.9035 36.4222 27.5932C38.3287 24.259 39.3252 20.4822 39.3119 16.6414C39.4445 13.0169 38.4833 9.43636 36.5533 6.36557C35.7067 5.01748 34.5434 3.89678 33.1647 3.10105C31.786 2.30532 30.2337 1.85869 28.6429 1.80005C25.5188 1.84143 22.7602 3.46212 20.7947 6.36557C19.6898 8.07262 18.9089 9.96864 18.4912 11.9587L18.3119 12.7518L17.8705 12.0621L17.8084 11.9725V11.9311C16.289 9.39849 14.0114 7.408 11.2981 6.24143C9.87234 5.60167 8.32971 5.26356 6.76707 5.24833C5.61642 5.23089 4.47852 5.49112 3.44983 6.00695C3.25672 6.11039 3.07052 6.24143 2.86362 6.37936L2.63603 6.53108C1.04293 7.72419 0.111895 9.78626 0.00155048 12.3311C-0.0393452 15.2422 0.729484 18.1074 2.22224 20.6069L2.32569 20.6483ZM29.6981 3.95867C30.7579 4.16103 31.7634 4.58355 32.6496 5.19892C33.5358 5.81429 34.283 6.6088 34.8429 7.53108C36.5329 10.2558 37.3688 13.4239 37.2429 16.6276C37.2311 20.0737 36.3308 23.4586 34.6291 26.4552C33.6918 28.1759 32.2166 29.5421 30.4291 30.3449L30.1395 30.4621L29.9947 30.1863C26.0153 22.5242 27.7257 18.6483 29.236 15.2345C29.3326 15.0069 29.436 14.7863 29.5395 14.5449C30.3556 13.0049 30.8639 11.3206 31.036 9.58626C31.0512 7.75065 30.4596 5.96143 29.3533 4.4966L28.8912 3.80695L29.6981 3.95867ZM22.505 7.51039C23.3929 6.08057 24.7077 4.96598 26.2636 4.32419L26.4843 4.23453L26.6429 4.41384C28.3464 6.31729 29.0429 7.86212 28.974 9.51039C28.9188 10.8414 28.2843 12.2138 27.5326 13.9518L27.3257 14.4138C25.5671 18.4069 24.3809 23.0552 27.6084 30.0138L27.9395 30.7035L27.1878 30.4552C25.4498 29.8828 23.8498 28.4621 22.5602 26.3173C20.8591 23.3781 19.9757 20.0373 20.0016 16.6414C19.9545 13.4221 20.8227 10.2556 22.505 7.51039ZM5.105 7.54488C5.63788 7.38834 6.19101 7.31164 6.74638 7.31729C8.02604 7.34248 9.28677 7.63125 10.4498 8.16557C12.6094 9.10912 14.4526 10.6531 15.7602 12.6138L16.0567 13.0966L16.1947 13.3173C17.3523 15.1331 17.9562 17.2467 17.9326 19.4001C17.9076 20.3195 17.6916 21.2238 17.2981 22.0552L16.9257 22.8069L16.6567 22.0138C15.0636 17.3104 12.2222 15.1173 9.39465 13.4276L9.23603 13.338C8.06033 12.7343 6.9817 11.9578 6.03603 11.0345C5.28639 10.1601 4.87099 9.04832 4.86362 7.8966V7.62764L5.105 7.54488ZM2.53258 10.0345L2.88431 9.13798L3.18086 10.0759C3.46263 10.934 3.91018 11.7283 4.4981 12.4138C5.48509 13.4448 6.63637 14.3048 7.905 14.9587L8.35327 15.2276C10.9878 16.7932 13.7188 18.4138 15.1326 24.1449L15.1878 24.3863L14.974 24.5242C14.3253 24.9349 13.5872 25.1833 12.8222 25.2483C12.6705 25.2483 12.5188 25.2483 12.3602 25.2483C11.4499 25.232 10.5512 25.0425 9.71189 24.6897C7.30646 23.6457 5.30838 21.8438 4.02224 19.5587C2.73672 17.3952 2.06219 14.9235 2.07052 12.4069C2.09335 11.5968 2.24706 10.7956 2.52569 10.0345" fill="#283388"/>
<path d="M42.6498 38.4552C42.8301 38.5955 43.019 38.7245 43.2153 38.8414L43.3809 38.9449C44.4949 39.4653 45.7099 39.7337 46.9395 39.7311H47.2981C47.4843 39.7311 47.6774 39.7311 47.8567 39.6897C49.3111 39.5226 50.7178 39.0678 51.9947 38.3518C54.0395 37.1954 55.8257 35.6322 57.2429 33.7587C57.4015 33.5518 57.5395 33.3587 57.6705 33.1656L57.7947 32.9932C59.3311 30.4343 60.0973 27.4867 60.0015 24.5035C59.8498 21.5449 58.7188 19.1863 56.8291 17.8552C56.7194 17.782 56.6041 17.7174 56.4843 17.6621L56.3257 17.5932C55.3591 17.176 54.3163 16.9647 53.2636 16.9725C51.4923 17.0197 49.7583 17.4928 48.2084 18.3518C45.8402 19.6194 43.8036 21.4268 42.2636 23.6276C40.6823 26.2357 39.8962 29.2484 40.0015 32.2966C40.1326 35.0552 41.0636 37.2207 42.6222 38.4552H42.6498ZM56.4912 20.4207L56.6429 20.6276C57.4502 21.8058 57.8982 23.1929 57.9326 24.6207C58.0178 26.9471 57.4873 29.2548 56.3946 31.3104C56.317 31.4742 56.2295 31.6331 56.1326 31.7863L56.036 31.9449C54.7175 33.8263 53.001 35.3944 51.0084 36.538C49.9887 37.1247 48.8642 37.5065 47.6981 37.6621C47.5257 37.6621 47.3464 37.6621 47.1257 37.6621H46.8567H45.8912L46.6291 37.0483C50.7671 33.6828 51.6291 30.1932 51.9533 26.9173C52.1119 25.3242 52.236 24.0621 52.7671 23.0828C53.374 21.9794 54.4567 21.1794 56.2912 20.4897L56.4912 20.4207ZM43.6291 25.4345C43.7188 25.2483 43.8291 25.069 43.9257 24.9035L44.0222 24.7449C45.3715 22.8499 47.136 21.2884 49.1809 20.1794C50.3599 19.5054 51.68 19.1157 53.036 19.0414H54.2498L53.236 19.7311C52.2763 20.3285 51.4782 21.1527 50.9119 22.1311C50.2821 23.4469 49.9344 24.8799 49.8912 26.338V26.738V26.8966C49.5947 29.9656 49.3119 32.869 44.0084 36.4759L43.7533 36.6483L43.5533 36.4138C42.6549 35.2085 42.171 33.7447 42.174 32.2414C42.1015 29.8928 42.6284 27.5645 43.705 25.4759L43.6291 25.4345ZM2.32569 20.6483C3.82804 23.3125 6.16035 25.4123 8.96707 26.6276C10.0397 27.0693 11.1864 27.3033 12.3464 27.3173H13.0705C14.3144 27.2177 15.5071 26.7788 16.5188 26.0483L16.8567 25.7932L17.2084 25.5173C17.7388 25.0727 18.2033 24.5548 18.5878 23.9794L18.9671 23.4207L19.2015 24.0552C19.6178 25.2566 20.1562 26.4121 20.8084 27.5035C22.8774 30.869 25.636 32.7863 28.6084 32.8966H28.6843C31.6774 32.7863 34.4222 30.9035 36.4222 27.5932C38.3287 24.259 39.3252 20.4822 39.3119 16.6414C39.4445 13.0169 38.4833 9.43636 36.5533 6.36557C35.7067 5.01748 34.5434 3.89678 33.1647 3.10105C31.786 2.30532 30.2337 1.85869 28.6429 1.80005C25.5188 1.84143 22.7602 3.46212 20.7947 6.36557C19.6898 8.07262 18.9089 9.96864 18.4912 11.9587L18.3119 12.7518L17.8705 12.0621L17.8084 11.9725V11.9311C16.289 9.39849 14.0114 7.408 11.2981 6.24143C9.87234 5.60167 8.32971 5.26356 6.76707 5.24833C5.61642 5.23089 4.47852 5.49112 3.44983 6.00695C3.25672 6.11039 3.07052 6.24143 2.86362 6.37936L2.63603 6.53108C1.04293 7.72419 0.111895 9.78626 0.00155048 12.3311C-0.0393452 15.2422 0.729484 18.1074 2.22224 20.6069L2.32569 20.6483ZM29.6981 3.95867C30.7579 4.16103 31.7634 4.58355 32.6496 5.19892C33.5358 5.81429 34.283 6.6088 34.8429 7.53108C36.5329 10.2558 37.3688 13.4239 37.2429 16.6276C37.2311 20.0737 36.3308 23.4586 34.6291 26.4552C33.6918 28.1759 32.2166 29.5421 30.4291 30.3449L30.1395 30.4621L29.9947 30.1863C26.0153 22.5242 27.7257 18.6483 29.236 15.2345C29.3326 15.0069 29.436 14.7863 29.5395 14.5449C30.3556 13.0049 30.8639 11.3206 31.036 9.58626C31.0512 7.75065 30.4596 5.96143 29.3533 4.4966L28.8912 3.80695L29.6981 3.95867ZM22.505 7.51039C23.3929 6.08057 24.7077 4.96598 26.2636 4.32419L26.4843 4.23453L26.6429 4.41384C28.3464 6.31729 29.0429 7.86212 28.974 9.51039C28.9188 10.8414 28.2843 12.2138 27.5326 13.9518L27.3257 14.4138C25.5671 18.4069 24.3809 23.0552 27.6084 30.0138L27.9395 30.7035L27.1878 30.4552C25.4498 29.8828 23.8498 28.4621 22.5602 26.3173C20.8591 23.3781 19.9757 20.0373 20.0016 16.6414C19.9545 13.4221 20.8227 10.2556 22.505 7.51039ZM5.105 7.54488C5.63788 7.38834 6.19101 7.31164 6.74638 7.31729C8.02604 7.34248 9.28677 7.63125 10.4498 8.16557C12.6094 9.10912 14.4526 10.6531 15.7602 12.6138L16.0567 13.0966L16.1947 13.3173C17.3523 15.1331 17.9562 17.2467 17.9326 19.4001C17.9076 20.3195 17.6916 21.2238 17.2981 22.0552L16.9257 22.8069L16.6567 22.0138C15.0636 17.3104 12.2222 15.1173 9.39465 13.4276L9.23603 13.338C8.06033 12.7343 6.9817 11.9578 6.03603 11.0345C5.28639 10.1601 4.87099 9.04832 4.86362 7.8966V7.62764L5.105 7.54488ZM2.53258 10.0345L2.88431 9.13798L3.18086 10.0759C3.46263 10.934 3.91018 11.7283 4.4981 12.4138C5.48509 13.4448 6.63637 14.3048 7.905 14.9587L8.35327 15.2276C10.9878 16.7932 13.7188 18.4138 15.1326 24.1449L15.1878 24.3863L14.974 24.5242C14.3253 24.9349 13.5872 25.1833 12.8222 25.2483C12.6705 25.2483 12.5188 25.2483 12.3602 25.2483C11.4499 25.232 10.5512 25.0425 9.71189 24.6897C7.30646 23.6457 5.30838 21.8438 4.02224 19.5587C2.73672 17.3952 2.06219 14.9235 2.07052 12.4069C2.09335 11.5968 2.24706 10.7956 2.52569 10.0345" fill="#283388"/>
<path d="M28.3639 50.3778C28.4795 50.1807 28.5827 49.9766 28.673 49.7667L28.754 49.5891C29.1246 48.4168 29.2323 47.1771 29.0693 45.9584L29.0225 45.6028C28.9982 45.4182 28.973 45.2267 28.9086 45.0544C28.5532 43.6342 27.9188 42.2989 27.0423 41.1263C25.6291 39.2498 23.8462 37.6828 21.8039 36.522C21.578 36.3917 21.3686 36.2802 21.16 36.1755L20.9729 36.0749C18.2355 34.8853 15.2131 34.5101 12.2679 34.9943C9.35437 35.5306 7.16344 36.9597 6.09028 39.0068C6.03196 39.1251 5.98298 39.2479 5.9438 39.3739L5.89612 39.5401C5.60865 40.5528 5.5351 41.6143 5.68016 42.657C5.95802 44.4071 6.65327 46.0645 7.7071 47.4891C9.2728 49.6717 11.3304 51.4551 13.7134 52.6949C16.5054 53.9225 19.5949 54.3089 22.6033 53.8068C25.3213 53.317 27.3468 52.1115 28.3675 50.4052L28.3639 50.3778ZM8.67795 39.0072L8.86329 38.8298C9.92611 37.8757 11.2429 37.2506 12.654 37.0303C14.9494 36.6422 17.3066 36.8672 19.4872 37.6824C19.6597 37.738 19.8287 37.804 19.9931 37.8802L20.163 37.9552C22.2003 39.0171 23.9789 40.5143 25.3727 42.3407C26.0874 43.2752 26.6126 44.3403 26.919 45.4761C26.9415 45.6471 26.9649 45.8248 26.9937 46.0436L27.0288 46.3103L27.1547 47.2676L26.4499 46.616C22.5734 42.9524 19.0011 42.553 15.7109 42.6589C14.1108 42.7094 12.8433 42.751 11.8031 42.3522C10.6299 41.8945 9.69548 40.9253 8.77242 39.1965L8.67795 39.0072ZM15.3267 51.1053C15.1304 51.0407 14.9382 50.9547 14.7615 50.8806L14.5916 50.8056C12.5369 49.715 10.7585 48.1693 9.39223 46.2866C8.5702 45.2055 8.0117 43.9475 7.76113 42.6128L7.6028 41.4093L8.41881 42.3245C9.13632 43.1981 10.0576 43.8819 11.1015 44.3157C12.4882 44.7685 13.9543 44.9263 15.4056 44.7789L15.8021 44.7267L15.9594 44.7061C19.0408 44.5997 21.9564 44.5013 26.2242 49.289L26.4285 49.5195L26.2221 49.7484C25.1443 50.7963 23.7561 51.467 22.2652 51.6602C19.9462 52.0384 17.569 51.8197 15.3578 51.0247L15.3267 51.1053Z" fill="#283388"/>
</g>
<defs>
<clipPath id="clip0">
<rect width="60" height="60" fill="white"/>
</clipPath>
</defs>
</svg>
