<svg width="52" height="52" viewBox="0 0 52 52" fill="none" xmlns="http://www.w3.org/2000/svg">
<path d="M14.7895 20.0562L14.8246 20.1907L14.7895 20.0562C11.6603 20.8738 8.74156 22.5719 6.34797 24.9655C3.19529 28.1181 1.27584 32.142 0.947835 36.2977C0.615035 40.5128 1.95311 44.363 4.72262 47.1324C7.01839 49.4282 10.0449 50.7413 13.4704 50.9326C13.7476 50.9481 14.0257 50.9558 14.3052 50.9557C17.3265 50.9556 20.4608 50.0568 23.2198 48.3889C23.7474 48.07 23.9165 47.3837 23.5975 46.8562C23.2787 46.3285 22.5924 46.1598 22.0649 46.4785L22.0649 46.4785C16.7641 49.683 10.5009 49.3987 6.6397 45.8746C6.88529 40.5826 11.2672 36.3525 16.6188 36.3525C19.301 36.3525 21.8477 35.4997 23.9823 33.8864C25.5829 32.6767 26.8688 31.0716 27.7108 29.2624C28.4151 29.8566 29.1592 30.3922 29.9365 30.8644C30.4644 34.0532 29.7222 37.6034 27.8612 40.6822C27.5423 41.2097 27.7115 41.8959 28.239 42.2148C28.4195 42.3239 28.6188 42.3759 28.8156 42.3759C29.193 42.3759 29.5618 42.184 29.7717 41.837L29.6527 41.7651L29.7717 41.837C31.607 38.8007 32.4927 35.3395 32.3104 32.0634C32.5517 32.1624 32.7954 32.2561 33.0415 32.3433C34.6978 32.9303 36.3682 33.2224 37.9987 33.2224C40.2909 33.2224 42.5029 32.6452 44.4839 31.5014C47.8758 29.5432 50.1648 26.1705 50.9343 22.013C51.6931 17.9138 50.8805 13.5303 48.6512 9.66907C46.4219 5.80786 43.0319 2.91243 39.1027 1.51989C35.1174 0.107563 31.052 0.403463 27.6602 2.36182C24.2684 4.32007 21.9794 7.69274 21.2099 11.8503C20.7302 14.4419 20.8793 17.147 21.6166 19.7619C19.4312 19.3547 17.1085 19.4505 14.7895 20.0562ZM16.6188 34.12C10.8468 34.12 5.99733 38.1412 4.72291 43.5289C1.7869 38.6218 2.95975 31.5108 7.92656 26.544L7.82828 26.4457L7.92656 26.544C12.045 22.4254 17.7231 20.7918 22.5223 22.2786C22.8084 22.9284 23.1317 23.5681 23.493 24.1941C24.2107 25.4372 25.0494 26.5793 25.9867 27.604C24.549 31.4699 20.785 34.12 16.6188 34.12ZM33.7872 30.2391C30.3633 29.0257 27.3928 26.484 25.4263 23.0779C21.4857 16.2524 22.8574 8.06269 28.3773 4.53849C33.4265 6.14479 36.3792 11.4728 34.9939 16.6426C34.149 19.7961 34.5827 23.0905 36.215 25.9177C37.3671 27.9133 39.0198 29.5078 41.0017 30.5705C38.7435 31.2169 36.257 31.1144 33.7872 30.2391ZM43.7667 29.3247C41.3878 28.5692 39.4047 26.9776 38.1484 24.8016C36.8139 22.4903 36.4595 19.7984 37.1503 17.2205C38.6443 11.6452 36.0154 5.92013 31.1411 3.29471C36.6407 1.72888 43.206 4.70218 46.7181 10.7852C50.6586 17.6107 49.2868 25.8007 43.7667 29.3247Z" fill="#283388" stroke="#283388" stroke-width="0.277983"/>
<path d="M26.101 43.6014C25.8071 43.6014 25.5197 43.7206 25.3119 43.9283C25.1028 44.1364 24.9848 44.4241 24.9848 44.7176C24.9848 45.0111 25.1028 45.2988 25.312 45.5069C25.5197 45.7146 25.8061 45.8338 26.101 45.8338C26.3949 45.8338 26.6823 45.7146 26.8901 45.5068C27.0979 45.299 27.2171 45.0115 27.2171 44.7176C27.2171 44.4237 27.0979 44.1362 26.8901 43.9285C26.6823 43.7207 26.3949 43.6014 26.101 43.6014Z" fill="#283388" stroke="#283388" stroke-width="0.277983"/>
</svg>
